<svg xmlns="http://www.w3.org/2000/svg" width="130" height="29" viewBox="0 0 130 29" fill="none"><path fill-rule="evenodd" clip-rule="evenodd" d="M122.918 0.630396C123.202 1.23618 123.48 1.81592 123.763 2.4217C121.729 2.5934 123.41 5.01882 125.021 5.09861C125.163 5.4015 125.293 5.68132 125.435 5.98421C125.211 6.3987 127.274 10.5454 128.357 13.1896C128.72 14.07 128.044 13.0221 128.554 14.1183C129.555 16.2907 129.045 14.4867 129.175 15.9557C129.462 19.2212 125.799 18.5853 123.816 19.9224C117.932 23.7907 108.765 23.7906 101.926 23.5689C99.1235 23.4711 96.5306 23.5884 94.0449 23.8263C91.5592 24.0642 89.1855 24.4487 86.8331 24.9084C84.4693 25.345 82.1495 25.9028 79.7423 26.4444C77.335 26.9859 74.8696 27.5542 72.2486 28.0808C69.6745 28.5576 67.0102 28.5945 64.2853 28.3479C61.549 28.0782 58.7798 27.5972 55.9845 27.015C53.1891 26.4328 50.4196 25.8387 47.6975 25.4209C44.9705 24.9771 42.2973 24.7067 39.7417 24.8352C37.301 24.9391 34.7458 24.5861 32.084 24.3388C29.4108 24.0684 26.6295 23.9327 23.7238 24.4771C22.6721 24.678 21.3778 24.9338 19.9862 25.1212C18.5881 25.3116 17.0863 25.4365 15.5497 25.2659C12.4993 24.9709 9.40107 23.6787 7.12755 20.1667C6.06637 18.5317 5.94669 17.9356 4.87915 15.7089C3.25504 12.3228 2.82166 11.2199 1.6575 8.55637C-1.59242 1.1054 0.82588 4.26762 3.62799 4.95998C8.32847 6.13774 11.9307 4.48008 15.2887 4.80338C18.0703 5.05221 20.9784 5.41269 23.7325 5.70244C26.4753 5.96913 29.0527 6.14203 31.1892 6.06485C33.8711 5.93489 36.6021 6.06539 39.3498 6.35813C42.0926 6.62481 44.8421 7.00164 47.5836 7.41047C50.3202 7.79324 53.0146 8.1388 55.6828 8.38316C58.3283 8.58137 60.9183 8.63521 63.4219 8.41742C73.8907 7.42202 82.6624 3.58372 93.6288 4.73753C104.594 5.92037 113.23 2.4839 122.918 0.630396Z" fill="#FFF9B0"></path></svg>